<svg xmlns="http://www.w3.org/2000/svg" width="256" height="256"><path fill-opacity=".016" d="M0 128.004v128.004l128.25-.254 128.25-.254.254-127.75L257.008 0H0v128.004m.485.496c0 70.4.119 99.053.265 63.672.146-35.38.146-92.98 0-128C.604 29.153.485 58.1.485 128.5" fill="#1976D2" fill-rule="evenodd"/><path fill-opacity=".075" d="M106.5 18.968c-22.401 4.866-39.4 13.977-55.751 29.883-14.805 14.402-25.122 31.959-30.482 51.872-2.382 8.849-2.632 11.485-2.635 27.777-.003 16.486.226 18.841 2.721 28 14.019 51.468 61.43 86.014 114.147 83.174 64.597-3.48 113.311-62.369 104.428-126.24-6.205-44.608-39.18-81.724-82.722-93.109-13.652-3.57-36.629-4.197-49.706-1.357m-8.987 25.1c-6.576 3.28-11.369 8.81-16.192 18.682-3.549 7.264-4.967 9.25-6.604 9.25-3.772 0-10.623 4.086-14.811 8.834-5.217 5.913-9.013 13.411-12.244 24.183-7.75 25.838-5.828 39.408 7.246 51.148l5.769 5.18-1.943 5.078c-4.065 10.622-.038 23.998 10.475 34.792 10.955 11.247 23.288 13.075 43.623 6.467 6.232-2.025 13.283-3.682 15.668-3.682s9.436 1.645 15.668 3.656c21.093 6.805 32.608 4.846 44.01-7.491 10.077-10.903 13.64-22.399 10.399-33.547l-1.666-5.732 5.014-4.508c3.207-2.884 6.196-6.917 8.294-11.193 3.122-6.361 3.274-7.194 3.129-17.185-.263-18.103-6.661-36.903-15.986-46.976-5.47-5.908-9.653-8.251-16.881-9.453-3.859-.642-4.151-.963-7.369-8.114C166.585 48.951 157.495 42.02 145 42.02c-6.446 0-15.742 3.135-17.439 5.881-.457.74-1.74.323-3.872-1.259-4.513-3.348-9.057-4.648-16.088-4.602-4.019.026-7.462.718-10.088 2.028m1.592 4.567C92.099 52.126 86.939 59.097 82.92 70.5c-1.708 4.845-1.908 5.021-6.438 5.681-9.19 1.338-16.856 9.504-22.451 23.915-3.11 8.009-7.058 25.554-6.989 31.061.104 8.388 6.948 19.978 14.699 24.894 2.617 1.66 4.731 3.34 4.697 3.733-.034.394-1.111 2.951-2.393 5.683-4.658 9.927-2.115 20.762 7.324 31.205 10.116 11.19 20.565 13.017 39.062 6.828 14.327-4.793 20.985-4.771 36.393.124 9.971 3.168 12.325 3.565 18.686 3.157 8.58-.551 14.257-3.392 20.025-10.024 9.234-10.616 11.911-23.097 7.036-32.803l-2.429-4.836 4.852-3.114c5.532-3.55 9.187-7.947 12.277-14.771 5.585-12.332-1.43-43.736-12.709-56.895-4.71-5.495-11.248-8.644-16.999-8.187-4.357.347-4.407.314-5.592-3.65-3.345-11.189-9.877-20.279-17.189-23.922-8.561-4.267-16.436-3.189-24.736 3.384-3.728 2.954-3.8 2.967-5.546 1.037-2.918-3.225-11.548-7-16-7-2.433 0-6.263 1.074-9.395 2.635m4.287 14.882C97.959 68.95 92.738 85.651 92.59 98.071c-.081 6.823.187 7.934 2.712 11.251 3.608 4.739 7.453 6.678 13.247 6.678 6.219 0 11.075-2.474 14.239-7.256 2.209-3.338 2.588-4.962 2.471-10.593-.256-12.37-6.155-30.203-11.469-34.674-3.754-3.159-7.212-3.146-10.398.04m38.095-1.402c-5.053 2.458-10.374 15.584-12.623 31.139-1.181 8.168-1.141 8.606 1.207 13.344C133.387 113.287 137.696 116 145 116c7.138 0 11.557-2.687 14.816-9.008 2.018-3.914 2.234-5.379 1.675-11.389-.684-7.361-4.514-21.812-7.111-26.834-3.413-6.601-8.066-9.003-12.893-6.654m-36.413 6.518c-3.073 3.907-7.175 17.814-7.791 26.417-.647 9.029.865 12.843 6.074 15.315 4.683 2.223 7.724 2.055 11.731-.645 6.625-4.465 7.352-9.787 3.441-25.204-2.8-11.04-6.636-18.516-9.499-18.516-1.036 0-2.817 1.185-3.956 2.633m37.169-1.383c-4.294 5.36-9.224 22.18-9.236 31.515-.006 4.605.422 5.732 3.416 9 3.105 3.387 3.903 3.735 8.577 3.735 4.708 0 5.461-.335 8.71-3.88l3.556-3.881-.548-8.119c-.592-8.777-4.477-22.068-7.825-26.77-2.141-3.007-4.976-3.689-6.65-1.6M75.631 92.147C71.21 94.715 61.997 120.344 62.023 130c.012 4.188 3.439 10.543 7.186 13.32 4.084 3.029 12.421 3.419 17.516.82 9.331-4.76 10.893-14.154 5.26-31.64-5.989-18.596-10.251-23.899-16.354-20.353m98.573.423c-5.065 3.548-12.286 23.988-12.515 35.43-.152 7.568 1.61 11.65 6.546 15.171 4.73 3.374 14.857 3.333 19.641-.079 4.963-3.54 7.523-10.022 6.714-17.004-.878-7.588-4.29-19.519-7.317-25.588-4.577-9.176-8.174-11.359-13.069-7.93m-98.227 6.68C71.536 106.492 67 121.612 67 129.175c0 9.058 8.233 14.844 16.316 11.466 5.594-2.337 7.934-6.845 7.254-13.973C89.602 116.523 81.795 96 78.904 96c-.513 0-1.83 1.463-2.927 3.25m99.716-1.463c-4.112 4.544-9.693 22.664-9.693 31.473 0 4.268.455 5.395 3.341 8.281 1.838 1.838 4.538 3.641 6 4.008 3.977.999 7.591-.281 11.318-4.008 2.886-2.886 3.341-4.013 3.341-8.281 0-9.949-7.915-33.26-11.292-33.26-.769 0-2.126.804-3.015 1.787m-71.786 35.541c-2.894 1.528-5.437 3.99-7.407 7.171-2.653 4.283-2.997 5.721-2.975 12.423.037 11.032 2.502 15.129 17.681 29.383 6.762 6.349 13.419 12.421 14.794 13.492l2.5 1.947 13.883-12.547c7.636-6.901 15.154-14.551 16.707-17 6.588-10.387 6.134-22.253-1.167-30.548-2.241-2.545-5.535-5.026-7.563-5.695-5.715-1.886-12.823-.717-18.054 2.969-4.524 3.19-4.552 3.195-6.675 1.257-6.157-5.622-14.425-6.707-21.724-2.852m3.593 3.631c-2.805 1.168-7.173 6.013-8.436 9.356-1.717 4.543-1.215 10.821 1.294 16.185 1.722 3.683 5.684 8.135 15.038 16.899l12.701 11.9 3.201-2.966c1.761-1.631 7.403-6.747 12.538-11.368 10.756-9.681 14.09-14.673 14.803-22.168.404-4.248.044-6.187-1.818-9.789-6.468-12.517-21.063-11.747-26.751 1.412l-1.694 3.92-2.438-4.919c-3.894-7.855-11.505-11.348-18.438-8.462" fill="#1976D2" fill-rule="evenodd"/><path fill-opacity=".255" d="M114.349 18.055c-44.621 5.816-81.981 38.564-93.416 81.883-9.925 37.597.917 78.577 28.067 106.084 16.755 16.975 38.468 28.331 61.167 31.99 11.339 1.828 36.127.771 46.177-1.969 39.347-10.726 68.984-40.497 79.852-80.211 1.997-7.302 2.281-10.682 2.292-27.332.013-21.206-1.267-28.25-7.964-43.819-19.478-45.281-67.711-72.943-116.175-66.626m-13.646 24.326c-9.238 3.444-17.438 12.473-21.362 23.523-1.585 4.46-1.934 4.76-7.452 6.386-13.48 3.973-23.421 20.965-28.497 48.715-2.712 14.82.427 25.077 10.734 35.077l5.754 5.583-1.396 3.917c-.768 2.155-1.416 6.884-1.44 10.508-.058 8.734 3.991 17.065 12.391 25.498 11.259 11.301 22.254 13.111 41.622 6.85 14.747-4.768 20.202-4.752 35.155.101 9.928 3.222 12.192 3.611 18.788 3.232 9.655-.556 15.584-3.209 22.278-9.972 10.796-10.906 15.205-25.062 11.34-36.406-1.541-4.524-1.534-4.859.123-5.753 3.235-1.748 9.253-8.694 11.679-13.482 3.901-7.698 4.719-14.574 3.054-25.665-1.739-11.582-6.411-26.049-10.773-33.355C197.01 77.605 187.237 71 178.822 71c-1.591 0-2.822-.545-2.823-1.25-.001-2.364-6.131-14.205-9.449-18.254-8.847-10.797-24.923-13.482-35.944-6.003l-3.668 2.489-5.468-3.086c-6.529-3.685-14.907-4.699-20.767-2.515m3.797 4.557c-9.666 2.344-16.637 10.28-21.438 24.405-1.583 4.658-1.827 4.878-5.73 5.17-2.242.167-5.405.991-7.029 1.831-8.089 4.183-15.557 17.322-19.801 34.838-2.884 11.904-3.172 20.496-.91 27.134 1.908 5.601 9.217 14.036 14.495 16.728l3.812 1.945-2.95 5.607c-4.052 7.704-4.019 13.942.117 22.221 5.96 11.926 15.449 19.078 26.405 19.902 5.026.378 7.942-.169 17.529-3.289 15.796-5.14 23.117-5.156 38.832-.086 12.964 4.183 17.862 4.491 25.567 1.608 6.41-2.398 14.816-10.764 18.665-18.576 3.321-6.741 3.35-16.019.072-22.678-1.301-2.641-2.201-4.926-2-5.077.2-.15 1.939-1.222 3.864-2.381 5.397-3.251 9.632-8.172 12.577-14.617 2.442-5.344 2.639-6.659 2.168-14.5-1.003-16.686-7.111-34.226-14.84-42.61-5.508-5.976-8.937-7.701-15.725-7.91-5.473-.168-5.48-.172-6.667-4.136-1.753-5.854-6.076-13.9-9.666-17.989-8.78-9.999-23.982-10.491-32.785-1.061l-2.437 2.611-3.063-2.902c-5.558-5.267-12.957-7.669-19.062-6.188m-1.749 16.812c-5.184 5.436-10.731 23.329-10.744 34.662-.009 7.822 3.219 13.551 9.295 16.492 5.293 2.562 8.952 2.618 14.239.216 5.066-2.301 9.178-7.106 10.048-11.741 1.834-9.78-4.731-33.611-10.981-39.862-3.499-3.499-8.389-3.403-11.857.233m37.004-.772c-3.397 2.672-6.514 9.619-9.374 20.893-3.967 15.638-2.993 22.75 3.949 28.845 8.362 7.342 20.913 4.449 26.355-6.073 3.003-5.808-.017-25.434-5.729-37.233-3.861-7.977-9.958-10.556-15.201-6.432m-35.115 7.213c-5.273 9.041-9.12 29.768-6.442 34.713 2.088 3.854 6.253 6.369 10.55 6.369 4.928 0 8.6-2.379 10.787-6.987 1.491-3.143 1.56-4.495.544-10.692-2.429-14.824-7.292-26.626-11.288-27.396-1.051-.202-2.538 1.228-4.151 3.993m37.477-1.816c-2.878 3.064-6.657 14.283-8.176 24.271-1.381 9.076-.096 13.896 4.508 16.913 3.037 1.989 9.183 2.244 12.415.514 3.216-1.721 6.131-7 6.115-11.073-.034-8.643-5.43-26.96-9.104-30.904-2.473-2.654-3.027-2.627-5.758.279m34.301 22.651c-5.078 1.915-9.542 10.468-13.511 25.884-3.326 12.922-2.185 20.154 4.002 25.36 6.891 5.798 15.253 5.83 22.082.084 6.7-5.637 7.531-12.099 3.566-27.73-4.157-16.384-10.535-25.712-16.139-23.598M74.237 93.25C68.939 98.896 62 119.323 62 129.274c0 15.06 17.256 22.943 28.32 12.938 2.877-2.602 5.681-8.742 5.673-12.422-.018-8.381-6.828-29.179-11.638-35.54-2.982-3.944-6.984-4.34-10.118-1m.836 8.606C71.452 109.028 67 123.812 67 128.662 67 135.81 71.742 141 78.272 141c6.623 0 10.331-2.933 12.2-9.648 1.349-4.847-6.483-30.242-10.428-33.812-1.853-1.677-2.018-1.534-4.971 4.316m100.494-3.599c-5.563 8.491-10.546 28.531-8.66 34.828 2.907 9.702 16.956 10.882 21.644 1.816 2.007-3.88 1.828-7.149-.999-18.294-2.44-9.62-6.987-19.638-9.238-20.354-.653-.207-1.889.694-2.747 2.004m-67.839 33.072c-13.391 4.158-18.828 20.146-11.701 34.409 2.47 4.943 5.62 8.424 17.111 18.91 7.746 7.069 14.393 12.972 14.77 13.118.837.324 25.513-21.612 29.326-26.07 6.699-7.832 8.557-20.309 4.364-29.313-5.565-11.952-19.665-15.423-29.789-7.333-2.092 1.672-3.956 2.522-4.302 1.962-1.123-1.818-8.967-5.782-12.507-6.321-1.925-.293-5.197-.006-7.272.638m-.313 6.092c-6.097 2.655-10.25 11.27-8.912 18.488 1.298 7.008 5.451 12.624 17.156 23.206 6.318 5.712 11.898 10.533 12.399 10.713 1.338.482 22.987-19.405 26.12-23.993 9.804-14.358.115-33.717-14.466-28.905-4.303 1.42-7.056 4.335-9.513 10.07l-1.927 4.5-1.684-3.986c-1.964-4.65-4.993-8.134-8.788-10.109-3.336-1.735-6.372-1.731-10.385.016" fill="#1976D2" fill-rule="evenodd"/><path fill-opacity=".179" d="M106 19.961C83.32 24.818 64.907 34.997 48.787 51.59 28.303 72.674 18 98.413 18 128.5c0 18.641 3.447 33.591 11.4 49.438 7.433 14.809 19.326 29.13 32.528 39.165 9.172 6.972 26.615 15.316 38.572 18.451 13.257 3.476 31.898 4.32 45.613 2.067 41.28-6.785 74.736-35.581 87.805-75.578 5.966-18.261 6.619-42.402 1.663-61.543-3.083-11.908-11.389-29.246-18.478-38.572-16.659-21.915-41.481-37.318-68.353-42.416-11.058-2.098-31.88-1.879-42.75.449m-8.793 23.623c-2.851 1.421-6.997 4.642-9.211 7.158-3.506 3.982-8.614 13.103-10.366 18.508-.312.963-1.496 1.75-2.632 1.75-3.718 0-11.662 4.811-15.907 9.633-9.47 10.759-18.119 37.922-16.788 52.723.736 8.184 5.435 17.29 12.035 23.322l5.29 4.834-1.915 5.494c-3.742 10.74.378 23.786 10.882 34.459 11.704 11.893 23.107 13.803 43.137 7.224 14.542-4.777 18.928-4.783 33.536-.05 19.966 6.469 30.462 4.826 41.811-6.546 8.983-9.001 13.348-17.862 13.292-26.982-.022-3.65-.73-8.212-1.581-10.184l-1.54-3.574 5.318-4.689c6.632-5.847 11.379-14.97 12.129-23.308.902-10.025-3.667-30.285-9.53-42.265-5.445-11.125-16.54-20.056-24.948-20.081-2.23-.007-3.469-.571-3.866-1.76-4.061-12.164-11.383-21.65-19.947-25.84-4.654-2.277-6.366-2.58-12.749-2.258-6.171.312-8.207.891-12.491 3.554-3.188 1.982-5.361 2.787-5.764 2.135-.356-.576-2.954-2.121-5.775-3.434-7.193-3.349-15.474-3.284-22.42.177m2.045 5.52c-2.337 1.157-5.402 3.474-6.811 5.149-3.135 3.725-7.77 12.764-9.486 18.497C81.734 76.831 81.524 77 77.68 77c-4.967 0-11.38 3.607-15.11 8.498-6.463 8.472-12.881 27.256-14.215 41.603-.725 7.788 1.12 14.493 5.743 20.875 2.575 3.555 9.779 9.15 13.287 10.319.69.23-.02 2.436-1.863 5.788-5.693 10.358-3.622 21.028 6.2 31.953 10.197 11.341 19.776 12.933 39.278 6.527 10.532-3.459 12.174-3.732 19.5-3.246 5.243.347 11.101 1.611 17 3.668 16.614 5.792 28.32 3.707 37.454-6.67 9.543-10.842 11.905-22.059 6.809-32.343-1.491-3.01-2.334-5.602-1.873-5.76.461-.159 2.905-1.599 5.431-3.201 5.934-3.763 11.315-11.864 12.803-19.275 2.579-12.841-5.107-40.814-13.997-50.938C189.819 79.891 183.596 77 177.343 77h-5.026l-1.868-6.169c-2.471-8.161-8.348-17.074-13.511-20.491-3.133-2.073-5.719-2.859-10.387-3.156-6.723-.428-11.33 1.235-17.273 6.236l-2.99 2.515-2.31-2.458c-5.976-6.362-16.83-8.281-24.726-4.373m5.11 12.817c-5.307 3.236-11.2 18.689-12.918 33.869-1.308 11.564 5.514 20.274 16.404 20.945 10.886.67 18.11-6.597 18.129-18.235.019-12.538-6.188-30.975-12.105-35.954-3.618-3.045-5.354-3.159-9.51-.625m35.548.808c-5.305 4.464-9.743 15.974-11.824 30.665-1.504 10.62 1.474 17.811 8.958 21.629 8.066 4.114 16.994 1.744 22.456-5.963 2.611-3.684 2.982-5.032 2.859-10.397-.324-14.127-7.257-33.399-13.299-36.968-3.91-2.31-5.372-2.145-9.15 1.034m-33.832 5.899c-2.978 3.785-5.895 12.36-7.731 22.727-1.547 8.73-1.539 9.437.143 12.983 2.066 4.354 5.898 6.662 11.06 6.662 2.818 0 4.425-.775 7.05-3.4 3.022-3.022 3.399-3.995 3.393-8.75-.014-10.767-6.449-30.66-10.41-32.18-.91-.349-2.302.429-3.505 1.958m36.648-.878C138.64 72.266 134 88.642 134 98.547c0 5.096.335 5.988 3.4 9.053 2.787 2.787 4.157 3.4 7.6 3.4 3.443 0 4.813-.613 7.6-3.4 3.094-3.094 3.399-3.926 3.393-9.25C155.978 86.024 149.174 66 145 66c-.38 0-1.403.787-2.274 1.75m-68.33 24.763c-5.94 5.94-14.115 30.76-12.9 39.164.791 5.464 4.107 10.251 9.034 13.041C81.952 151.188 96 142.712 96 129.35c0-10.359-7.069-30.657-12.747-36.6-3.261-3.413-5.618-3.476-8.857-.237m99.842-.967c-7.039 4.93-15.653 32.732-13.06 42.147 4.138 15.022 22.992 18.074 31.571 5.11 2.322-3.509 2.723-5.105 2.574-10.23-.356-12.205-7.06-31.491-12.555-36.115-3.385-2.848-5.451-3.069-8.53-.912m2.455 6.241c-4.218 4.661-9.647 22.024-9.676 30.947-.014 4.326.466 5.775 2.765 8.349 5.715 6.396 15.394 4.527 18.803-3.632 1.655-3.962.505-12.338-3.221-23.451-2.119-6.32-5.844-14-6.791-14-.144 0-.991.804-1.88 1.787m-100.664 2.406c-2.247 3.694-7.623 20.353-8.551 26.493-.435 2.883-.136 5.232.961 7.544C73.64 145.19 90 141.732 90 129.673 90 121.131 81.911 97 79.048 97c-.593 0-1.951 1.437-3.019 3.193m28.412 32.275c-8.131 4.051-13.294 14.131-12.049 23.522 1.187 8.959 5.099 14.447 20.491 28.745 7.91 7.349 14.952 13.227 15.649 13.063.698-.164 7.795-6.238 15.771-13.497 11.553-10.514 15.009-14.277 16.989-18.5 3.583-7.642 4.175-12.682 2.263-19.26-2.753-9.47-11.083-16.497-19.555-16.497-4.046 0-10.92 2.876-13.83 5.786l-2.007 2.007-1.832-2.06c-2.568-2.889-9.174-5.729-13.385-5.755-1.954-.012-5.782 1.088-8.505 2.446m.155 7.582c-4.197 3.685-5.981 8.599-5.38 14.817.747 7.732 3.382 11.548 16.434 23.794l12.417 11.649 2.716-2.449c21.288-19.195 22.64-20.574 24.866-25.354 5.741-12.329-.108-25.507-11.321-25.507-6.144 0-9.782 2.424-13.064 8.705-1.52 2.91-2.989 5.29-3.264 5.289-.275-.001-1.33-2.021-2.346-4.489-2.687-6.536-6.653-9.505-12.696-9.505-4.023 0-5.503.54-8.362 3.05" fill="#1976D2" fill-rule="evenodd"/></svg>