<?xml version="1.0" encoding="UTF-8"?>
<svg id="Layer_1" data-name="Layer 1" xmlns="http://www.w3.org/2000/svg" viewBox="0 0 35 35">
  <defs>
    <style>
      .cls-1 {
        fill: #ffcb5b;
      }

      .cls-2 {
        fill: #fff;
      }

      .cls-3 {
        fill: #d9d0e4;
      }

      .cls-4 {
        fill: #5c2b79;
      }

      .cls-5 {
        fill: #f9a553;
      }

      .cls-6 {
        fill: #b9a7c2;
      }

      .cls-7 {
        fill: #dedcea;
      }

      .cls-8 {
        fill: #49225f;
      }

      .cls-9 {
        fill: #f47f48;
      }

      .cls-10 {
        fill: #f58b4d;
      }

      .cls-11 {
        fill: #c0b2cc;
      }
    </style>
  </defs>
  <g>
    <path class="cls-7" d="m17.5,1.46c8.86,0,16.04,7.18,16.04,16.04s-7.18,16.04-16.04,16.04"/>
    <path class="cls-7" d="m17.5,33.54c-8.86,0-16.04-7.18-16.04-16.04S8.64,1.46,17.5,1.46"/>
  </g>
  <g>
    <g>
      <path class="cls-6" d="m22.76,18.68c.48,1.39.74,2.84.68,4.32-.03.83-.23,1.59-.63,2.31-.47.28-.93.58-1.41.83-.68.35-1.42.51-2.18.51-2.57.01-5.15,0-7.72,0-.24,0-.48-.04-.75-.06-.26-.02-.72-.07-1.04-.13-.36-.07-.91-.22-1.55-.61-.32-.28-.78-.74-1.16-1.42,0,0-.3-.55-.48-1.21-.48-1.81.18-4.22.23-4.38,1.08-3.79,3.69-6.22,4.19-6.77.46-.49.98-.91,1.49-1.35.05-.05.1-.11.17-.18,1.47-.02,2.94-.02,4.4-.02.05,0,.1.02.19.05,1.01.96,1.95,1.95,2.77,3.04,1.18,1.56,2.16,3.22,2.79,5.07Zm-7.17-.51c.16-.86-.33-1.75-1.17-2.1-.22-.09-.31-.2-.28-.43,0-.05,0-.1,0-.15,0-.36-.2-.58-.49-.58-.3,0-.51.23-.48.58.03.34-.1.49-.4.63-.65.3-.99.86-1.07,1.57-.04.37.15.62.45.64h.04l.45.78c-.48.28-.81.76-.92,1.36-.16.87.35,1.75,1.23,2.12.16.07.23.14.21.31,0,.12,0,.25,0,.36.03.27.25.46.5.44.27-.02.48-.18.46-.44-.05-.46.17-.65.55-.85.59-.3.88-.86.93-1.52.03-.36-.16-.59-.46-.61-.05,0-.09,0-.13,0l-1.12-.52c.86-.1,1.53-.74,1.69-1.62Z"/>
      <path class="cls-6" d="m14.42,16.07c.84.35,1.33,1.24,1.17,2.1-.16.89-.83,1.52-1.69,1.62h-.18c-.33.03-.61.13-.86.43-.25.44-.25.82.02,1.17.24.3.65.44,1.01.34.42-.11.68-.43.74-.91.03-.28.18-.47.39-.51.04,0,.08-.01.13,0,.29.02.48.25.46.61-.05.66-.34,1.22-.93,1.52-.38.2-.6.39-.55.85.03.26-.19.42-.46.44-.25.02-.47-.18-.5-.44-.01-.12-.01-.24,0-.36.02-.17-.05-.25-.21-.31-.88-.37-1.39-1.25-1.23-2.12.11-.6.44-1.07.92-1.36.28-.17.63-.27,1-.29.56-.03.98-.43.99-.96,0-.52-.41-.96-.92-.99-.53-.03-.96.36-1.03.92-.04.35-.22.54-.48.54h-.04c-.3-.03-.49-.27-.45-.64.08-.71.42-1.27,1.07-1.57.3-.14.43-.28.4-.63-.03-.36.18-.58.48-.58.3,0,.48.22.49.58,0,.05,0,.1,0,.15-.04.23.06.33.28.43Z"/>
      <path class="cls-6" d="m13.9,19.79l1.12.52c-.21.04-.36.23-.39.51-.05.48-.31.8-.74.91-.36.1-.77-.04-1.01-.34-.27-.35-.28-.73-.02-1.17.24-.3.52-.4.86-.41h.18Z"/>
      <path class="cls-6" d="m13.71,16.88c.51.03.93.48.92.99,0,.53-.43.93-.99.96-.38.02-.72.12-1,.29l-.45-.78c.27,0,.44-.2.48-.54.07-.56.5-.95,1.03-.92Z"/>
    </g>
    <ellipse class="cls-4" cx="14.91" cy="18.49" rx="3.7" ry="6"/>
    <path class="cls-4" d="m6.66,23.41c-.04-.12-.07-.24-.11-.35-.03-.07-.05-.16-.07-.26,0-.03,0-.05-.01-.07,0,0-.01-.07-.02-.15-.07-.89.04-1.88.04-1.88.05-.44.14-1.24.27-1.84.19-.87,1.2-3.17,2.94-5.33.82-1.01,1.71-1.95,2.72-2.78.06-.05.11-.12.15-.19-.84-.02-1.65-.02-2.47-.01-.34.35-.68.7-1.02,1.05-1.29,1.33-2.39,2.8-3.31,4.41-.79,1.39-1.36,2.85-1.7,4.41-.09.39-.13.83-.17,1.2-.05.42-.07.62-.07.75,0,.03,0,.06,0,.07-.01.38.11.89.2,1.11.17.46.77,1.22,1.81,1.74-.19-.36-.35-.72-.27-.77.09-.06.38.41.68.34.39-.09.55-1.08.43-1.43Z"/>
    <path class="cls-8" d="m18.06,6.67c.49-.96.63-1.98.41-3.03-.19-.95-.69-1.15-1.68-.84-.33.11-.65.23-.99.31-.41.1-.8-.03-1.17-.21-.66-.32-1.31-.33-1.96,0-.45.23-.92.26-1.44.24-.03.67.14,1.27.38,1.86.41,1.01,1.28,1.6,2.37,1.6,1.23,0,2.46,0,3.69,0,.13,0,.25.04.38.06Z"/>
    <path class="cls-4" d="m18.06,6.69c-.13-.04-.25-.09-.38-.09-1.23,0-2.46,0-3.69,0-1.08,0-1.95-.6-2.37-1.6-.24-.59-.41-1.19-.41-1.86-.47-.2-.89-.48-1.44-.46-.44.01-.7.26-.82.61-.35,1.05-.24,2.09.17,3.1.24.61.57,1.16,1.07,1.65.37.03.69.03,1.05.03.24,0,.45,0,.67,0,1.75,0,3.49,0,5.24-.01.31-.45.61-.9.92-1.37Z"/>
    <path class="cls-10" d="m25.58,21.31c.16-.75-.48-1.11-1.06-1.34-1.11-.44-2.26-.44-3.43-.31-.66.07-1.28.24-1.84.61-.34.22-.59.49-.49.98.08.14.14.25.22.34.6.63,1.4.77,2.23.89.99.13,1.95.09,2.88-.19.59-.17,1.15-.4,1.49-.97Z"/>
    <path class="cls-4" d="m22.81,25.33c-.3.24-.77.57-1.41.81-.43.16-.81.23-1.59.3-1.19.11-2.08.12-2.8.13-1.52.03-1.62.07-2.5.08-1.51.02-5.19.21-6.67-1.15-.47-.44-.77-.98-.77-.98-.26-.47-.37-.9-.42-1.19h0c-.45-.7-.77-1.4-1.02-1.33-.27.07-.12.96-.5,1.12-.33.14-.84-.29-1.3-.79,0,.16-.01.37.02.63.02.14.06.45.21.87.55,1.52,1.49,2.4,1.49,2.4.15.15.57.52,1.24.87,3.19,1.66,9.03,1.22,11.55,1.03.44-.03,1.44-.12,2.45-.69.87-.5,1.54-1.2,2.03-2.1Z"/>
    <path class="cls-1" d="m25.59,31.14c.39.56.98.81,1.6.99.88.25,1.78.23,2.67.17.73-.05,1.47-.22,2.09-.66.3-.21.54-.46.5-.89-.04-.37,0-.75-.03-1.14-.23.38-.56.64-.97.8-.76.31-1.56.43-2.38.43-.63,0-1.02-.4-1.03-1.04,0,0,0,0-.03,0-.15-.02-.29-.04-.41-.07-.78-.16-1.52-.4-2-1.07,0,.32,0,.6,0,.92,0,.54,0,1.04,0,1.55Z"/>
    <path class="cls-11" d="m11.21,8.08c-.33,0-.66,0-1.01-.02-.34.02-.66-.02-.95.21-.41.32-.65.92-.47,1.42.16.46.61.89,1.15.83.04,0,.08,0,.15,0,.85,0,1.66,0,2.51,0,1.49,0,2.96,0,4.42,0,.05,0,.1.02.17.04.24-.04.48-.04.68-.13.53-.24.76-.68.67-1.28-.29.23-.59.39-.97.39-1.71,0-3.41,0-5.12-.01-.21,0-.44-.07-.63-.18-.49-.27-.63-.74-.59-1.27Z"/>
    <path class="cls-9" d="m25.57,31.15c.02-.52.02-1.02,0-1.55-.24.39-.58.64-1,.81-.74.3-1.51.41-2.3.42-.68,0-1.06-.36-1.12-1.04-.18-.02-.33-.03-.48-.07-.74-.2-1.5-.36-1.93-1.09,0,.78-.02,1.57,0,2.35.01.4.36.59.66.76.5.29,1.05.46,1.63.5.62.04,1.26.1,1.88.05.91-.08,1.82-.23,2.5-.94.05-.06.09-.13.16-.2Z"/>
    <path class="cls-1" d="m25.58,21.34c-.34.54-.9.77-1.49.95-.94.28-1.89.32-2.88.22-.03.82-.03,1.62-.03,2.41,0,0,0,0,.03,0,.84.13,1.64.08,2.44-.09.76-.16,1.5-.38,1.93-1.13,0-.27,0-.54.02-.83,0-.52,0-1.01-.01-1.53Z"/>
    <path class="cls-3" d="m11.24,8.08c-.07.54.07,1,.56,1.28.19.1.42.18.63.18,1.71.01,3.41,0,5.12.01.38,0,.68-.17.97-.42.05-.52-.54-1.04-.96-1.05-.12,0-.24,0-.39,0-1.77,0-3.52,0-5.26,0-.21,0-.43,0-.67,0Z"/>
    <path class="cls-5" d="m18.75,28.62c.44.76,1.2.92,1.93,1.12.15.04.3.05.48.07.03,0,.03,0,.03-.03,0-.82,0-1.62,0-2.41,0,0,0,0-.03,0-.43-.1-.84-.17-1.23-.31-.5-.18-.98-.41-1.18-.97,0,.84,0,1.67,0,2.54Z"/>
    <path class="cls-5" d="m21.19,24.92c0-.8,0-1.59,0-2.42-.81-.15-1.61-.29-2.2-.92-.08-.09-.14-.2-.22-.31-.01.8-.02,1.61,0,2.47.18.22.32.43.51.56.58.37,1.23.56,1.91.61Z"/>
    <path class="cls-9" d="m21.19,24.92c-.69-.06-1.34-.24-1.91-.61-.19-.13-.33-.34-.51-.53-.02.74-.02,1.5-.02,2.28.21.58.69.82,1.18.99.39.14.8.21,1.23.28.03-.82.03-1.61.03-2.41,0,0,0,0,0,0Z"/>
    <path class="cls-5" d="m28.04,29.81c.01.64.4,1.04,1.03,1.04.82,0,1.62-.12,2.38-.43.41-.17.74-.42.96-.83.02-.06.02-.11.03-.18,0-.27,0-.51-.03-.77-.33.58-.9.81-1.49.98-.95.27-1.91.33-2.89.2Z"/>
    <path class="cls-2" d="m15.68,19.37c-.23-.28-.51-.38-.85-.4-.95-.03-1.69-.7-1.86-1.64-.16-.86.33-1.75,1.17-2.1.22-.09.31-.2.28-.42,0-.05,0-.1,0-.15,0-.36.2-.58.49-.57.3,0,.51.23.48.58-.03.34.1.49.4.63.65.3.99.86,1.07,1.56.04.37-.14.62-.45.64-.29.02-.48-.18-.53-.54-.07-.56-.5-.95-1.03-.92-.52.03-.93.48-.92.99,0,.53.42.93.99.96,1.01.05,1.75.68,1.92,1.65.16.87-.35,1.76-1.23,2.12-.16.07-.23.14-.21.31.01.12,0,.25,0,.37-.03.27-.25.46-.5.44-.27-.02-.49-.18-.46-.44.05-.46-.17-.65-.55-.85-.59-.31-.88-.86-.93-1.52-.03-.35.16-.59.46-.61.28-.02.48.18.52.52.05.47.31.79.74.91.36.1.77-.04,1.01-.35.27-.35.28-.73,0-1.18Z"/>
    <path class="cls-1" d="m28.31,24.5c-.38.07-.73.12-1.07.2-.55.13-1.05.37-1.52.76-.07.24-.1.46-.12.7.09.12.15.24.24.33.6.61,1.39.75,2.21.87.99.12,1.95.09,2.88-.19.59-.17,1.15-.41,1.49-.97.08-.48-.17-.8-.54-1.04-.58-.38-1.23-.54-1.9-.6-.54-.05-1.1-.04-1.67-.05Z"/>
    <path class="cls-10" d="m32.43,26.23c-.34.54-.9.77-1.49.95-.94.28-1.89.31-2.88.22-.03.82-.03,1.62-.03,2.41,0,0,0,0,0,0,.98.14,1.95.08,2.89-.2.59-.17,1.16-.4,1.48-1.01.02-.24.02-.47.03-.72,0-.56,0-1.09-.01-1.65Z"/>
    <path class="cls-10" d="m25.59,26.15c.03-.22.06-.44.12-.68-.02-.27-.09-.52-.11-.77-.02-.31,0-.63-.01-.97-.43.72-1.17.94-1.93,1.1-.8.17-1.6.22-2.44.09-.03.8-.03,1.59-.03,2.41,0,.03,0,.03.03.03.67,0,1.32.05,1.96-.02.93-.1,1.81-.34,2.42-1.16,0-.01,0-.04,0-.04Z"/>
    <path class="cls-9" d="m25.61,26.16s-.01.01-.01.05c0,.84,0,1.64,0,2.43,0,0,0,0,0,0,.48.7,1.22.94,2,1.1.13.03.26.04.41.07.03-.79.03-1.59.03-2.41-.79-.15-1.59-.29-2.18-.9-.09-.09-.15-.21-.24-.33Z"/>
    <path class="cls-10" d="m21.19,29.81c.04.68.42,1.04,1.1,1.04.79-.01,1.56-.12,2.3-.42.42-.17.76-.43,1-.84.02-.3.02-.59.02-.91,0-.03,0-.03-.02-.02-.38.54-.92.81-1.52.97-.94.25-1.89.32-2.86.18,0,0,0,0,0,0Z"/>
    <path class="cls-1" d="m21.19,29.78c.97.17,1.92.1,2.86-.15.6-.16,1.14-.42,1.52-.97.02-.81.02-1.6.02-2.43-.6.78-1.49,1.02-2.42,1.12-.64.07-1.29.02-1.96.02-.03.8-.03,1.59-.03,2.41Z"/>
  </g>
</svg>