<?xml version="1.0" encoding="UTF-8"?>
<svg id="Layer_1" data-name="Layer 1" xmlns="http://www.w3.org/2000/svg" viewBox="0 0 35 35">
  <defs>
    <style>
      .cls-1 {
        fill: #fff;
      }

      .cls-2 {
        fill: #8e6e6d;
      }

      .cls-3 {
        fill: #d9d0e4;
      }

      .cls-4 {
        fill: #9d7f84;
      }

      .cls-5 {
        fill: #a694b3;
      }

      .cls-6 {
        fill: #ccb998;
      }

      .cls-7 {
        fill: #f1e6cd;
      }

      .cls-8 {
        fill: #dedcea;
      }

      .cls-9 {
        fill: #5d2b79;
      }

      .cls-10 {
        fill: #49225f;
      }

      .cls-11 {
        fill: #c0b2cc;
      }
    </style>
  </defs>
  <g>
    <path class="cls-8" d="m17.5,1.46c8.86,0,16.04,7.18,16.04,16.04s-7.18,16.04-16.04,16.04"/>
    <path class="cls-8" d="m17.5,33.54c-8.86,0-16.04-7.18-16.04-16.04S8.64,1.46,17.5,1.46"/>
  </g>
  <g>
    <path class="cls-4" d="m21.9,2.08c.52.1.9.24,1.04.29.61.23,1.18.56,1.7.98-.06.08-.12.12-.15.18-.56.95-1.25,1.79-2.04,2.56-.25.24-.51.48-.78.72-.11.06-.2.11-.28.17-1.62,1.22-3.44,1.98-5.45,2.27-.22.03-.28.14-.28.34,0,1.25,0,2.51,0,3.76,0,.89.3,1.68.82,2.39.41.56.98.93,1.56,1.3-.06.35-.12.68-.2,1.02-.49,1-1.38,1.41-2.36,1.68-.55,0-1.1.04-1.63-.15-1.25-.47-1.97-1.37-2.19-2.68-.17-1.05.18-1.91.83-2.71.74-.91,1.17-1.97,1.17-3.16,0-.76-.01-1.52,0-2.28.03-1.55.48-2.97,1.44-4.19.53-.67,1.14-1.23,1.83-1.65.98-.6,1.86-.79,2.14-.84.59-.11,1.07-.11,1.39-.12.34,0,.81,0,1.41.11Z"/>
    <path class="cls-4" d="m9.37,11.79c-.11-.05-1.88.02-2.48,0-.19,0-1-.04-1.91-.47-.38-.18-.75-.42-1.09-.71-.92-.79-1.49-1.78-1.67-2.95-.24-1.59.18-3.02,1.32-4.2.49-.51,1.05-.91,1.69-1.16.03-.01.31-.09.69-.21.12-.04.22-.07.29-.09.07.04.18.11.33.16.17.06.26.06.39.09.11.03.22.07.53.25.37.22.58.35.86.58.32.26.55.52.71.72.15.19.41.51.64.99.04.08.19.4.31.86.16.61.17,1.09.18,1.19,0,.6-.1,1.04-.13,1.17-.04.15-.1.32-.23.67-.14.38-.21.53-.31.67-.02.03-.07.09-.16.22-.11.15-.17.23-.19.26-.04.06-.23.36-.24.76,0,.17.03.26.03.29.05.15.14.26.24.36.08.09.12.13.17.17.02.01.05.03.08.07.01.02.05.05.06.11.03.1-.02.22-.08.23-.01,0-.03,0-.03,0Zm-.36-5.38c-.4.02-.62.28-.51.59.07.21.23.33.46.32.23-.01.38-.13.42-.36.05-.27-.08-.44-.37-.55m-3.89.9c.4.01.65-.21.57-.53-.05-.22-.2-.35-.42-.37-.23-.01-.39.1-.46.32-.08.26.03.45.31.58m2.24-.07c.2-.18.25-.39.11-.62-.12-.19-.31-.26-.52-.18-.22.08-.33.25-.31.49.03.32.32.45.72.31Z"/>
    <path class="cls-3" d="m31.89,32.12c.21,0,.42-.02.63.01.17.02.33.1.51.14.02.24.02.51.02.77H1.96v-.76c.33-.07.66-.14.98-.14,1.92-.01,3.84,0,5.76,0,.11,0,.22,0,.36,0,0-2.43,0-4.85.02-7.24.02,2.31.03,4.6.02,6.9,0,.26.06.35.33.35,1.27-.01,2.55,0,3.85,0,2.23,0,4.43,0,6.64,0,2.14,0,4.28,0,6.46,0,.62,0,1.21,0,1.83,0,1.24,0,2.46,0,3.68,0Z"/>
    <path class="cls-2" d="m9.4,11.79c.1-.15.12-.27-.06-.4-.63-.45-.53-1.15-.2-1.57.68-.88,1.01-1.9,1-2.99,0-1.13-.39-2.15-1.11-3.04-.66-.81-1.5-1.34-2.49-1.64-.11-.03-.22-.09-.33-.16.24-.02.58-.03.98-.02.42.01.85.06,1.13.11,1.35.26,2.35,1.35,2.45,1.46.54.6.92,1.34,1.13,2.23.37,1.59,0,3.07-1.09,4.32-.14.15-.29.29-.43.44-.13.13-.15.26.05.36.25.14.51.27.74.43.1.07.15.2.22.31-.11.05-.22.15-.34.16-.54.02-1.07,0-1.64,0Z"/>
    <path class="cls-9" d="m13.27,32.13c-1.27,0-2.55,0-3.82,0-.28,0-.34-.1-.33-.35,0-2.29,0-4.59,0-6.91.1-1.16.62-2.05,1.49-2.78.69-.58,1.55-.79,2.33-1.18.73-.37,1.51-.66,2.3-.96.05.59.06,1.16.06,1.76,0,.74-.02,1.45-.05,2.16-.57,0-1.12,0-1.66,0-.78,0-1.13.38-1.07,1.15.05.62.13,1.24.19,1.87.18,1.75.37,3.49.55,5.24Z"/>
    <path class="cls-7" d="m15.31,21.68c-.01-.57-.02-1.14-.05-1.74.06-.07.14-.11.22-.17.99-.3,1.87-.7,2.37-1.69.54.5,1.15.82,1.84.99.92.23,1.85.11,2.78.11.33,0,.65-.12.97-.2.09-.02.17-.1.27-.14.56.46,1.19.73,1.87.9.04.03.08.06.12.13,0,.6,0,1.14-.03,1.7-1.2.36-2.4.61-3.63.73-1.32.13-2.64.13-3.94-.07-.93-.15-1.86-.37-2.78-.56Z"/>
    <path class="cls-9" d="m25.69,21.57c0-.55.01-1.1.02-1.68.67.26,1.33.56,1.99.85.63.28,1.25.55,1.88.82,1.31.55,1.97,1.6,2.25,2.94.05.22.06.45.06.68,0,2.29,0,4.59,0,6.91-1.21.03-2.43.03-3.67,0,.05-.84.13-1.65.22-2.46.17-1.59.35-3.18.52-4.77.05-.51-.36-.99-.87-1-.49-.01-.99,0-1.51,0-.31,0-.59,0-.87-.03,0-.78-.01-1.52-.02-2.27Z"/>
    <path class="cls-4" d="m25.61,19.75c-.7-.17-1.34-.44-1.91-.92-.49-.53-.76-1.12-.74-1.83.1-.07.19-.12.27-.17,1.31-.76,1.99-1.91,2.09-3.44,0-.36,0-.69,0-1.02,0-.29-.03-.58-.05-.89.02-.15.05-.28.05-.41,0-.58,0-1.17.03-1.75.37.01.7.04,1.04.03.31,0,.61-.06.92-.09,0,.52,0,1.05.01,1.57.01,1.39.47,2.6,1.37,3.66.39.46.59,1.04.64,1.66.06.78-.09,1.52-.54,2.15-.64.93-1.53,1.46-2.68,1.45-.16,0-.32,0-.51,0Z"/>
    <path class="cls-2" d="m27.33,9.22c-.31.06-.62.11-.93.12-.34,0-.68-.02-1.06-.05-.1-.02-.14-.04-.19-.05-1.51-.31-2.73-1.02-3.46-2.44.25-.24.51-.48.76-.72.79-.76,1.48-1.61,2.04-2.56.03-.06.09-.1.16-.16.58.34,1,.83,1.38,1.35.64.87,1.06,1.85,1.23,2.92.08.51.05,1.04.07,1.59Z"/>
    <path class="cls-7" d="m21.67,6.81c.74,1.42,1.97,2.13,3.48,2.44.05.01.1.02.17.05.02.6.02,1.18.01,1.77,0,.13-.03.26-.05.43-.47,1.33-1.32,2.24-2.63,2.69-.21-.25-.45-.41-.77-.41-.36,0-.73,0-1.09,0-.51.02-.89.41-.89.89,0,.48.39.87.9.88.25,0,.51-.01.76,0,.44.04.82-.08,1.14-.42.36-.13.7-.25,1.03-.4.65-.3,1.14-.81,1.62-1.32-.11,1.5-.79,2.65-2.09,3.41-.09.05-.17.1-.3.17-.46.12-.88.3-1.3.3-1.2,0-2.43.18-3.59-.29-.58-.35-1.14-.72-1.56-1.28-.53-.71-.82-1.5-.82-2.39,0-1.25,0-2.51,0-3.76,0-.21.05-.31.28-.34,2.01-.29,3.83-1.05,5.45-2.27.08-.06.17-.11.28-.17Z"/>
    <path class="cls-6" d="m18.05,17.04c1.17.44,2.39.27,3.59.26.42,0,.84-.19,1.28-.29.02.7.28,1.28.76,1.8-.07.07-.15.15-.24.17-.32.08-.65.2-.97.2-.93,0-1.86.12-2.78-.11-.69-.17-1.3-.49-1.82-1.01.05-.34.11-.67.17-1.03Z"/>
    <path class="cls-3" d="m9.03,6.41c.27.1.4.28.35.55-.04.23-.2.34-.42.36-.23.01-.38-.1-.46-.32-.11-.31.11-.57.53-.58Z"/>
    <path class="cls-3" d="m5.1,7.29c-.26-.13-.37-.31-.29-.57.07-.22.23-.33.46-.32.23.01.37.15.42.37.08.32-.16.55-.59.53Z"/>
    <path class="cls-3" d="m7.34,7.24c-.39.13-.67,0-.7-.32-.03-.24.08-.41.31-.49.22-.08.4,0,.52.18.15.23.1.44-.13.63Z"/>
    <path class="cls-3" d="m25.71,23.87c.28,0,.56,0,.88.02.46.38.59.82.46,1.37-.09.4-.09.82-.14,1.23-.09.87-.17,1.74-.26,2.61-.1,1.01-.19,2.02-.29,3.03-2.14,0-4.28,0-6.43,0-2.2,0-4.41,0-6.64,0-.21-1.75-.39-3.49-.58-5.24-.07-.62-.14-1.24-.19-1.87-.07-.77.29-1.15,1.07-1.15.55,0,1.09,0,1.69,0,3.51,0,6.96,0,10.42,0m-5.26,3.09c-.67.19-1.01.64-1.01,1.3,0,.72.65,1.31,1.35,1.26.78-.05,1.3-.73,1.19-1.56-.09-.65-.81-1.14-1.54-1Z"/>
    <path class="cls-11" d="m26.39,32.13c.07-1.01.16-2.02.26-3.03.08-.87.17-1.74.26-2.61.04-.41.05-.83.14-1.23.12-.55,0-.99-.44-1.37.49-.02.98-.04,1.48-.02.51.01.93.49.87,1-.17,1.59-.35,3.18-.52,4.77-.09.81-.17,1.62-.25,2.46-.59.03-1.18.03-1.8.02Z"/>
    <path class="cls-1" d="m25.7,23.84c-3.45.03-6.9.03-10.39.03-.03-.71-.02-1.42,0-2.16.93.16,1.85.38,2.79.53,1.31.21,2.62.21,3.94.07,1.23-.12,2.43-.37,3.63-.73.03.74.03,1.49.04,2.26Z"/>
    <path class="cls-9" d="m22.66,14.2c1.3-.46,2.15-1.37,2.62-2.67.02.27.05.55.06.84,0,.33,0,.67,0,1.02-.48.54-.97,1.04-1.62,1.35-.32.15-.67.27-1.02.38.13-.32.09-.62-.03-.92Z"/>
    <path class="cls-10" d="m22.64,14.18c.14.31.18.61.03.93-.3.37-.67.48-1.12.45-.25-.02-.51,0-.76,0-.5-.02-.89-.4-.9-.88,0-.48.37-.87.89-.89.36-.01.73,0,1.09,0,.32,0,.56.15.77.41Z"/>
    <path class="cls-5" d="m20.47,26.96c.7-.14,1.43.36,1.52,1,.11.82-.41,1.5-1.19,1.56-.71.05-1.35-.54-1.35-1.26,0-.66.34-1.11,1.03-1.3Z"/>
  </g>
</svg>