<?xml version="1.0" encoding="UTF-8"?>
<svg id="Layer_1" data-name="Layer 1" xmlns="http://www.w3.org/2000/svg" viewBox="0 0 35 35">
  <defs>
    <style>
      .cls-1 {
        fill: #fff;
      }

      .cls-2 {
        fill: #5c2b79;
      }

      .cls-3 {
        fill: #b9a7c2;
      }

      .cls-4 {
        fill: #dedcea;
      }
    </style>
  </defs>
  <g>
    <path class="cls-4" d="m17.5,1.46c8.86,0,16.04,7.18,16.04,16.04s-7.18,16.04-16.04,16.04"/>
    <path class="cls-4" d="m17.5,33.54c-8.86,0-16.04-7.18-16.04-16.04S8.64,1.46,17.5,1.46"/>
  </g>
  <g>
    <path class="cls-3" d="m33.84,10.73c.05.33.08.6.09.76.08,1.16-.11,2.02-.3,2.86-.07.3-.33,1.4-.93,2.79-.26.61-.56,1.21-.9,1.79-1.05,1.8-2.32,3.43-3.73,4.95-.73.79-1.52,1.52-2.31,2.25-.75.69-1.52,1.37-2.32,2-1.18.93-2.4,1.82-3.6,2.71-.8.6-1.64,1.1-2.71.92-.08-.13-.14-.24-.22-.34-.44-.53-.9-1.05-1.33-1.59-2.36-2.93-4.33-6.1-5.69-9.63-.81-2.11-1.33-4.3-1.46-6.56-.12-2.16.21-4.26,1.12-6.24.67-1.46,1.58-2.73,3.01-3.56.09-.05.15-.14.25-.21,1.15.38,2.16.96,3.08,1.71.68.55,1.48.76,2.31.44.41-.15.79-.42,1.14-.7,1.38-1.07,2.95-1.68,4.67-1.84.98-.09,1.97-.06,2.93.19.69.17,2.07.57,3.46,1.65.18.14.85.68,1.54,1.54,1.51,1.89,1.84,3.75,1.9,4.09Zm-2.79-1.41c-.74-.48-1.5-.55-2.26-.09-.68.41-1,1.03-.98,1.85.03.97.75,1.78,1.76,1.94.88.14,1.88-.44,2.17-1.28.32-.94.1-1.74-.69-2.41m-5.01-1.73c.26.52.68.78,1.26.75.53-.03.98-.41,1.13-.9.15-.51-.01-1.04-.43-1.38-.42-.34-1.04-.37-1.49-.06-.51.35-.69.9-.47,1.59Z"/>
    <path class="cls-2" d="m17.13,31.76c-.64,0-1.18-.29-1.68-.66-1.34-.98-2.68-1.96-4-2.98-.8-.62-1.55-1.29-2.3-1.98-.81-.74-1.61-1.49-2.35-2.29-1.37-1.47-2.61-3.05-3.63-4.79-.67-1.15-1.24-2.34-1.6-3.62-.24-.84-.36-1.46-.39-1.66-.05-.35-.07-.75-.12-1.56-.03-.64-.04-1.09.08-1.65.02-.08.03-.14.04-.18.49-2.12,1.55-3.89,3.25-5.25,1.39-1.11,2.99-1.74,4.75-1.89,1.21-.1,2.42-.01,3.58.38-.07.07-.14.17-.22.22-1.42.83-2.34,2.1-3.01,3.56-.9,1.98-1.24,4.08-1.12,6.24.12,2.26.65,4.44,1.46,6.56,1.35,3.53,3.33,6.69,5.69,9.63.43.54.89,1.06,1.33,1.59.08.1.14.21.22.34Z"/>
    <path class="cls-1" d="m31.07,9.34c.78.66,1,1.46.67,2.4-.29.85-1.29,1.43-2.17,1.28-1.01-.16-1.72-.97-1.76-1.94-.03-.82.3-1.44.98-1.85.76-.46,1.52-.39,2.28.11Z"/>
    <path class="cls-1" d="m26.04,7.57c-.21-.68-.04-1.23.47-1.57.45-.3,1.08-.28,1.49.06.42.34.58.87.43,1.38-.14.49-.6.87-1.13.9-.58.03-1-.24-1.27-.77Z"/>
  </g>
</svg>