<?xml version="1.0" encoding="UTF-8"?>
<svg id="Layer_1" data-name="Layer 1" xmlns="http://www.w3.org/2000/svg" viewBox="0 0 35 35">
  <defs>
    <style>
      .cls-1 {
        fill: #fff;
      }

      .cls-2 {
        fill: #937474;
      }

      .cls-3 {
        fill: #7f5e55;
      }

      .cls-4 {
        fill: #98797c;
      }

      .cls-5 {
        fill: #8e6e6d;
      }

      .cls-6 {
        fill: #9d7f84;
      }

      .cls-7 {
        fill: #ccb998;
      }

      .cls-8 {
        fill: #f1e6cd;
      }

      .cls-9 {
        fill: #83635e;
      }

      .cls-10 {
        fill: #dedcea;
      }

      .cls-11 {
        fill: #5d2b79;
      }

      .cls-12 {
        fill: #49225f;
      }

      .cls-13 {
        fill: #814742;
      }
    </style>
  </defs>
  <g>
    <path class="cls-10" d="m17.5,1.46c8.86,0,16.04,7.18,16.04,16.04s-7.18,16.04-16.04,16.04"/>
    <path class="cls-10" d="m17.5,33.54c-8.86,0-16.04-7.18-16.04-16.04S8.64,1.46,17.5,1.46"/>
  </g>
  <g>
    <path class="cls-5" d="m23.45,6.35c.8-.43,1.66-.72,2.55-.9,1.06-.21,2.1-.1,3,.5.56.37,1.08.84,1.52,1.35.95,1.09,1.49,2.41,1.98,3.75.11.31.18.63.29.96.02.09.02.18.02.28-.63.33-.87.92-.94,1.54-.1.9-.09,1.81-.14,2.71-.02.37-.08.74-.14,1.13-.16-.08-.3-.17-.43-.28-.85-.76-1.22-1.8-1.51-2.85-.38-1.39-.66-2.81-1.04-4.2-.27-1.01-.68-1.96-1.36-2.78-.71-.85-1.59-1.28-2.69-1.27-.36,0-.71.04-1.08.06,0,0-.03,0-.03,0Z"/>
    <path class="cls-5" d="m2.19,12.05c.18-.54.35-1.06.54-1.57.56-1.52,1.31-2.93,2.55-4.01.71-.62,1.53-1.01,2.5-1.08,1.14-.08,2.16.29,3.17.71-.12.02-.22.03-.31.01-.59-.13-1.14,0-1.69.19-.92.34-1.64.95-2.26,1.69-.7.83-1.25,1.76-1.71,2.74-.66,1.42-1.16,2.91-1.58,4.42-.02.06-.08.12-.12.18,0-.66-.04-1.32-.25-1.94-.15-.42-.35-.82-.81-1.04-.02-.09-.02-.17-.02-.28Z"/>
    <path class="cls-8" d="m12.65,6.59c1.16-.22,2.31-.5,3.48-.65.83-.11,1.69-.14,2.52-.05.98.1,1.96.36,2.93.57.63.14,1.23.1,1.85-.12.02,0,.04,0,.05.02.11.06.21.11.31.15.85.32,1.52.84,2.04,1.59.74,1.07,1.03,2.29,1.23,3.54.24,1.52.42,3.05.67,4.56.19,1.14.5,2.25,1.12,3.25.04.06.05.15.07.22-.21.79-.36,1.6-.63,2.37-.47,1.3-1.24,2.44-2.24,3.39-.54.5-1.17.9-1.78,1.33.04-.32.15-.62.14-.92-.02-.8-.45-1.39-1.07-1.86-.85-.64-1.85-.81-2.89-.86-.03-.5-.26-.88-.63-1.16-1.07-.83-2.26-.92-3.55-.6-.9.3-1.63.76-1.8,1.79-1.21.03-2.31.29-3.22,1.13-.19-.25-.39-.48-.52-.74-.37-.79-.77-1.57-1.04-2.39-.22-.66-.31-1.37-.4-2.06-.13-.94-.25-1.88-.28-2.83-.04-1.01.01-2.03.05-3.04.04-1.14.26-2.26.65-3.34.42-1.16,1.04-2.18,2.12-2.86.26-.16.54-.28.81-.43m11.76,10.95c0-.37.04-.73.01-1.1-.07-1.12-1.04-1.83-2.01-1.66-.85.22-1.4.78-1.44,1.53-.03.45-.03.9,0,1.34.06.88.86,1.57,1.77,1.54.88-.03,1.61-.74,1.66-1.66m-10.38.05c0-.38,0-.76,0-1.13.03-.91-.87-1.87-2.03-1.66-.85.22-1.32.72-1.41,1.6-.04.43-.03.88.02,1.31.09.87.85,1.51,1.73,1.5.87-.01,1.59-.68,1.69-1.61Z"/>
    <path class="cls-2" d="m11.28,24.29c.89-.84,1.99-1.11,3.21-1.12.09.5.31.9.7,1.17.38.25.78.47,1.18.7.81.47,1.61.41,2.42-.08.27-.14.53-.27.77-.43.49-.33.89-.73.91-1.38,1.03.02,2.03.19,2.88.83.62.47,1.05,1.06,1.07,1.86,0,.3-.1.6-.16.92-.3.6-.78,1.01-1.36,1.35-.32.11-.6.22-.88.3-.67.19-1.36.23-2.08.12-.71-.12-1.33-.4-1.91-.78-.33-.21-.72-.21-1.05,0-.59.38-1.22.65-1.95.77-.68.11-1.32.07-1.96-.12-.32-.09-.64-.2-.95-.3-.46-.27-.88-.6-1.18-1.05-.05-.08-.1-.17-.16-.29-.07-.36-.15-.69-.15-1.02,0-.59.3-1.05.67-1.47Z"/>
    <path class="cls-6" d="m3.28,15.34c.04-.09.1-.14.12-.2.43-1.51.92-3,1.58-4.42.46-.98,1.01-1.91,1.71-2.74.62-.74,1.34-1.35,2.26-1.69.54-.2,1.1-.32,1.69-.19.1.02.2,0,.32,0,.05,0,.08,0,.13.02.04.03.06.04.08.04.11.05.23.09.34.18-.06.06-.13.1-.19.12-.96.33-1.71.93-2.25,1.78-.66,1.02-.94,2.17-1.13,3.34-.23,1.41-.38,2.83-.61,4.24-.2,1.27-.5,2.52-1.19,3.63-.04.06-.04.15-.06.23-.14.15-.3.29-.41.46-.27.41-.66.57-1.11.49-.43-.08-.7-.4-.81-.83-.22-.91-.4-1.83-.42-2.77-.01-.55-.04-1.11-.05-1.69Z"/>
    <path class="cls-7" d="m6.08,19.7c.02-.1.02-.19.06-.25.69-1.11.99-2.36,1.19-3.63.23-1.41.38-2.83.61-4.24.19-1.17.47-2.32,1.13-3.34.55-.85,1.29-1.45,2.25-1.78.07-.02.13-.06.2-.1.37.06.73.14,1.11.23-.25.14-.53.27-.79.43-1.07.68-1.7,1.7-2.12,2.86-.39,1.08-.6,2.19-.65,3.34-.04,1.01-.09,2.03-.05,3.04.04.95.16,1.89.28,2.83.09.69.18,1.4.4,2.06.28.82.67,1.6,1.04,2.39.12.26.33.49.52.74-.35.43-.66.89-.65,1.48,0,.33.09.65.14,1-1.99-1.13-3.36-2.82-4.12-4.98-.23-.66-.36-1.36-.54-2.07Z"/>
    <path class="cls-6" d="m28.94,19.68c-.04-.08-.05-.16-.09-.23-.61-1-.93-2.1-1.12-3.25-.25-1.52-.43-3.05-.67-4.56-.2-1.25-.49-2.47-1.23-3.54-.51-.74-1.19-1.27-2.04-1.59-.1-.04-.2-.09-.3-.15.35-.04.71-.07,1.06-.08,1.1-.01,1.98.42,2.69,1.27.68.82,1.09,1.78,1.36,2.78.38,1.39.66,2.81,1.04,4.2.29,1.05.66,2.09,1.51,2.85.12.11.27.2.42.3-.13.78-.19,1.59-.45,2.33-.26.78-1.26.8-1.78.16-.13-.17-.26-.34-.41-.51Z"/>
    <path class="cls-4" d="m19.71,31.23c-.47.89-1.25,1.34-2.22,1.34-.95,0-1.71-.44-2.2-1.35-.25-.56-.27-1.12-.22-1.68.65-.18,1.29-.36,1.95-.55,0,.18,0,.36,0,.55,0,.33.18.53.47.53.29,0,.48-.2.48-.52,0-.19,0-.39,0-.56.69.19,1.33.37,1.97.58.05.59-.04,1.13-.24,1.66Z"/>
    <path class="cls-9" d="m19.74,31.22c.18-.52.26-1.06.22-1.68,0-.37,0-.69,0-1.01.69.11,1.38.07,2.05-.13.28-.08.56-.19.86-.29-.03.63-.33,1.14-.73,1.6-.64.73-1.45,1.23-2.4,1.51Z"/>
    <path class="cls-9" d="m15.05,29.54c-.02.56,0,1.12.24,1.66-1.44-.45-2.61-1.23-3.11-2.76-.03-.09-.04-.19-.06-.31.31.08.63.19.95.28.63.19,1.28.22,1.96.14.03.35.03.67.03.98Z"/>
    <path class="cls-13" d="m11.16,6.15s-.03,0-.05-.02c0,0,.03,0,.05.02Z"/>
    <path class="cls-11" d="m20.46,23.12c-.02.67-.41,1.07-.9,1.4-.24.16-.5.29-.77.41-.08-.05-.13-.1-.19-.11-.83-.26-1.62-.58-2.18-1.3-.37-.47-.53-.99-.31-1.58.07-.19.14-.39.21-.58,1.26-.32,2.46-.23,3.53.6.36.28.59.66.63,1.16Z"/>
    <path class="cls-12" d="m14.02,17.65c-.09.88-.8,1.54-1.68,1.55-.88.01-1.63-.62-1.73-1.5-.05-.43-.06-.88-.02-1.31.08-.87.55-1.38,1.43-1.57.03.17.04.32.03.47-.66.41-.65.97,0,1.43,0,.18,0,.32,0,.47.01.43.27.83.65.94.4.12.78.06,1.08-.28.07-.08.15-.14.23-.21Z"/>
    <path class="cls-12" d="m24.38,17.59c-.03.87-.75,1.59-1.63,1.61-.91.03-1.72-.66-1.77-1.54-.03-.45-.03-.89,0-1.34.04-.75.59-1.32,1.46-1.5.03.17.03.32.02.47-.32.15-.51.38-.51.72,0,.35.22.57.53.74,0,.2-.01.37,0,.53,0,.52.38.87.89.91.5.04.79-.22,1.03-.6Z"/>
    <path class="cls-12" d="m16.28,21.36c-.05.19-.11.39-.18.58-.22.59-.06,1.11.31,1.58.56.72,1.35,1.03,2.18,1.3.06.02.11.06.17.12-.78.51-1.58.57-2.39.1-.4-.23-.8-.44-1.18-.7-.4-.27-.61-.67-.68-1.17.14-1.05.86-1.51,1.77-1.81Z"/>
    <path class="cls-11" d="m22.47,15.28c0-.14,0-.29-.01-.46.92-.2,1.9.51,1.96,1.63.02.36,0,.73-.03,1.12-.25.4-.54.66-1.04.62-.52-.04-.89-.39-.89-.91,0-.17,0-.34.03-.53.19-.05.37-.04.51-.11.33-.15.48-.53.38-.85-.12-.38-.45-.56-.92-.52Z"/>
    <path class="cls-11" d="m12.08,15.29c0-.14-.01-.29-.02-.47,1.12-.24,2.01.73,1.98,1.63-.01.38,0,.76-.01,1.16-.08.1-.17.16-.24.24-.3.34-.68.4-1.08.28-.38-.11-.64-.51-.65-.94,0-.15,0-.3.02-.47.4.05.66-.05.85-.34.17-.26.18-.52,0-.78-.21-.31-.5-.41-.85-.32Z"/>
    <path class="cls-3" d="m15.07,29.54c-.02-.32-.02-.63-.02-.98.7-.15,1.33-.42,1.92-.8.33-.21.72-.22,1.05,0,.59.37,1.2.65,1.91.78.02.32.02.64.02.99-.64-.15-1.28-.33-1.97-.53,0,.17,0,.37,0,.56,0,.32-.2.53-.48.52-.29,0-.47-.2-.47-.53,0-.19,0-.37,0-.55-.66.19-1.3.37-1.95.55Z"/>
    <path class="cls-1" d="m12.06,15.3c.38-.1.66,0,.87.31.17.26.17.52,0,.78-.19.29-.45.39-.85.31-.67-.44-.68-.99-.02-1.4Z"/>
    <path class="cls-1" d="m22.46,15.29c.49-.06.82.13.94.51.1.32-.05.69-.38.85-.14.07-.32.06-.51.08-.34-.14-.55-.36-.56-.72,0-.34.19-.57.51-.72Z"/>
  </g>
</svg>