<?xml version="1.0" encoding="UTF-8"?>
<svg id="Layer_1" data-name="Layer 1" xmlns="http://www.w3.org/2000/svg" viewBox="0 0 35 35">
  <defs>
    <style>
      .cls-1 {
        fill: #ffcb5b;
      }

      .cls-2 {
        fill: #f06262;
      }

      .cls-3 {
        fill: #b9a7c2;
      }

      .cls-4 {
        fill: #f05f61;
      }

      .cls-5 {
        fill: #dedcea;
      }

      .cls-6 {
        fill: #5d2b79;
      }

      .cls-7 {
        fill: #49225f;
      }

      .cls-8 {
        fill: #f47f48;
      }

      .cls-9 {
        fill: #f49e61;
      }
    </style>
  </defs>
  <g>
    <path class="cls-5" d="m17.5,1.46c8.86,0,16.04,7.18,16.04,16.04s-7.18,16.04-16.04,16.04"/>
    <path class="cls-5" d="m17.5,33.54c-8.86,0-16.04-7.18-16.04-16.04S8.64,1.46,17.5,1.46"/>
  </g>
  <g>
    <path class="cls-6" d="m22.64,9.37c2.25,0,4.51,0,6.76,0,.61,0,1.21,0,1.82,0,.13,0,.26.09.41.12.02,1.66.02,3.34,0,5.02-.15.06-.27.14-.4.15-.32.02-.64,0-.98,0-3.58,0-7.14,0-10.69-.03,0-1.76,0-3.49,0-5.24,0,0,.01-.03.03-.03,1.03,0,2.04-.01,3.06-.02Z"/>
    <path class="cls-6" d="m3.35,9.51c.29-.06.58-.13.87-.13,2.81,0,5.61,0,8.47,0,.95,0,1.85.01,2.75.03,0,.01.01.03.01.06,0,1.74,0,3.46-.02,5.18-.02.02-.03.03-.06.04-3.09,0-6.16,0-9.22,0-.23,0-.46-.04-.69-.04-.24,0-.49.03-.76.05-.47-.05-.93.1-1.35-.11v-5.06Z"/>
    <path class="cls-1" d="m22.65,9.35c-1.02.03-2.03.03-3.09.04-.15,0-.25,0-.33-.02.58-.07,1.14-.1,1.69-.18,1.45-.22,2.82-.7,4.1-1.42.45-.25.86-.57,1.28-.86.16-.11.22-.31.12-.46-.06-.09-.25-.16-.37-.15-.41.03-.82.09-1.23.16-1.89.35-3.6,1.11-5.11,2.29-.16.12-.32.23-.51.37-.16-.64-.51-1.07-1.07-1.3-.14-.06-.27-.1-.41-.16.27-.41.52-.83.82-1.22.6-.77,1.35-1.38,2.2-1.87.77-.45,1.6-.77,2.49-.88.54-.06,1.09-.08,1.63-.11.65-.04,1.12.22,1.43.81.35.67.56,1.38.61,2.13.04.61-.31.99-.76,1.31-.93.66-2,1.02-3.06,1.38-.13.05-.27.08-.42.14Z"/>
    <path class="cls-1" d="m15.44,9.39c-.9,0-1.8-.01-2.72-.02-.97-.37-1.92-.71-2.85-1.11-.53-.23-1-.57-1.33-1.08-.04-.07-.1-.14-.1-.22-.03-.7,0-1.39.32-2.04.16-.32.32-.64.52-.93.15-.23.38-.37.69-.37.39,0,.78-.06,1.17-.04,1.26.06,2.45.4,3.54,1.06.68.41,1.29.91,1.81,1.5.37.42.68.9,1.01,1.36.03.04.07.08.09.15-.27.08-.52.11-.76.19-.49.18-.77.57-.99,1.05-.11-.06-.19-.11-.27-.17-1.2-.91-2.51-1.62-3.97-2-.78-.2-1.58-.31-2.38-.44-.11-.02-.33.07-.36.16-.04.12.04.29.1.43.03.08.13.13.2.18.66.5,1.38.88,2.13,1.21,1.07.47,2.18.79,3.33.95.39.05.78.11,1.14.16-.12,0-.22,0-.32.01Z"/>
    <path class="cls-8" d="m15.79,9.38c-.39-.05-.78-.11-1.17-.16-1.16-.15-2.26-.47-3.33-.95-.75-.33-1.47-.71-2.13-1.21-.07-.06-.17-.11-.2-.18-.06-.13-.13-.3-.1-.43.03-.08.24-.17.36-.16.8.13,1.6.24,2.38.44,1.46.38,2.77,1.09,3.97,2,.08.06.17.1.27.17.22-.49.5-.88.99-1.05.24-.09.5-.11.77-.17.04,0,.07,0,.11,0,.15.05.29.1.43.15.57.23.92.66,1.07,1.3.19-.14.35-.25.51-.37,1.52-1.18,3.23-1.93,5.11-2.29.41-.08.82-.13,1.23-.16.12,0,.31.06.37.15.1.16.04.35-.12.46-.42.29-.83.61-1.28.86-1.28.72-2.65,1.19-4.1,1.42-.55.08-1.11.12-1.71.18-1.17.01-2.29.01-3.42.01Z"/>
    <path class="cls-1" d="m15.45,14.63c0-1.72,0-3.43.03-5.17,1.37-.03,2.72-.03,4.07-.03,0,1.73,0,3.47,0,5.23,0,.03,0,.02-.03.02-1.37,0-2.72,0-4.06-.01,0-.01,0-.04,0-.04Z"/>
    <path class="cls-7" d="m30.25,14.68c.02.39.02.78,0,1.19-3.58.03-7.13.03-10.68,0,0-.41-.01-.8-.02-1.19,0,0,0,0,.01,0,3.56,0,7.11,0,10.7,0Z"/>
    <path class="cls-9" d="m19.55,9.42c-1.35,0-2.7,0-4.07,0-.03,0-.03-.02-.04-.03.1-.01.2-.02.32-.02,1.15,0,2.27,0,3.42,0,.13,0,.22,0,.35.01.03,0,.02.02.01.03Z"/>
    <path class="cls-7" d="m4.74,15.9c0-.39,0-.77-.01-1.18.24-.04.49-.07.73-.07.23,0,.46.04.69.04,3.07,0,6.13,0,9.22,0,.03,0,.03,0,.03.03.01.41.03.8.01,1.19-3.57,0-7.12,0-10.67,0Z"/>
    <path class="cls-3" d="m19.56,15.9c3.55,0,7.1,0,10.67,0,.03.1.03.2.03.3,0,4.9,0,9.79,0,14.69,0,.46-.08.54-.54.54-3.36,0-6.72,0-10.11-.01-.04-.02-.05-.03-.06-.04,0,0-.01,0-.01-.02,0-5.11,0-10.2,0-15.29,0-.05,0-.11,0-.16,0,0,.02,0,.02,0Z"/>
    <path class="cls-3" d="m4.74,15.92c3.55-.03,7.1-.03,10.68-.03.03,0,.04,0,.04.03,0,.07,0,.12,0,.16,0,5.02,0,10.04,0,15.07,0,.07,0,.15,0,.22,0,0-.01,0-.02,0-.02.02-.03.03-.03.04-.88,0-1.77,0-2.65,0-2.51,0-5.02,0-7.54,0-.37,0-.48-.1-.48-.46,0-5.01,0-10.01,0-15.04Z"/>
    <path class="cls-9" d="m19.55,31.42c-1.35,0-2.69,0-4.07,0-.03-.02-.04-.04-.04-.04,0,0,0,0,.04,0,1.37,0,2.71,0,4.06,0,0,0,0,0,.01,0,0,.01,0,.04,0,.04Z"/>
    <path class="cls-4" d="m15.44,31.38s.02.02.02.03c0,.01-.02.02-.04.02,0-.01,0-.03.02-.04Z"/>
    <path class="cls-2" d="m19.56,31.42s0-.03,0-.04c.01,0,.02,0,.04.03,0,.01-.01.01-.03.01Z"/>
    <path class="cls-8" d="m15.4,14.71s.03-.03.04-.03c1.36,0,2.7,0,4.07,0,.03.39.03.78.04,1.19,0,.03,0,.03-.04.03-1.37,0-2.71,0-4.05,0,0,0-.01,0-.02,0-.02-.39-.03-.77-.04-1.19Z"/>
    <path class="cls-1" d="m15.46,15.92c1.34-.03,2.68-.03,4.05-.03.03.05.04.11.04.16,0,5.09,0,10.17,0,15.29-1.35.03-2.69.03-4.05.03-.03-.07-.03-.15-.03-.22,0-5.02,0-10.04,0-15.07,0-.05,0-.09,0-.16Z"/>
  </g>
</svg>