<?xml version="1.0" encoding="UTF-8"?>
<svg id="Layer_1" data-name="Layer 1" xmlns="http://www.w3.org/2000/svg" viewBox="0 0 35 35">
  <defs>
    <style>
      .cls-1 {
        fill: #fff;
      }

      .cls-2 {
        fill: #f19a23;
      }

      .cls-3 {
        fill: #f4b445;
      }

      .cls-4 {
        fill: #e48724;
      }

      .cls-5 {
        fill: #f09923;
      }

      .cls-6 {
        fill: #e78925;
      }

      .cls-7 {
        fill: #f5b444;
      }

      .cls-8 {
        fill: #5c2b79;
      }

      .cls-9 {
        fill: #f09922;
      }

      .cls-10 {
        fill: #b9a7c2;
      }

      .cls-11 {
        fill: #ffca5c;
      }

      .cls-12 {
        fill: #fde07a;
      }

      .cls-13 {
        fill: #dedcea;
      }

      .cls-14 {
        fill: #fddf79;
      }

      .cls-15 {
        fill: #f47f48;
      }

      .cls-16 {
        fill: #f5b243;
      }
    </style>
  </defs>
  <g>
    <path class="cls-13" d="m17.5,1.46c8.86,0,16.04,7.18,16.04,16.04s-7.18,16.04-16.04,16.04"/>
    <path class="cls-13" d="m17.5,33.54c-8.86,0-16.04-7.18-16.04-16.04S8.64,1.46,17.5,1.46"/>
  </g>
  <g>
    <path class="cls-8" d="m15.3,23.71c-.13,0-.25-.01-.38-.01-4.02,0-8.05,0-12.07,0-.55,0-1.24-.46-1.39-1.07-.02-5.61-.02-11.22,0-16.86.12-.56.82-1.1,1.37-1.1,9.78.01,19.56,0,29.34.01.11,0,.22.02.33.05.55.13.83.54,1.05,1.02,0,5.35,0,10.71-.02,16.09-.06-.04-.11-.11-.14-.18-.26-.55-.51-1.11-.79-1.65-.13-.25-.32-.48-.49-.74,0-3.41,0-6.79,0-10.18-.75-.05-1.38-.25-1.91-.72-.52-.46-.87-1.04-.97-1.73-.06-.44-.04-.45-.47-.45-5.79,0-11.58,0-17.37,0-1.76,0-3.51,0-5.27,0-.24,0-.34.07-.36.31-.09,1-.61,1.74-1.48,2.2-.42.22-.91.31-1.38.46v10.11c.17.03.31.07.45.09,1.23.15,2.29,1.24,2.4,2.48.03.29.11.42.45.42,3.18-.02,6.35,0,9.53.02-.15.49-.3.96-.45,1.43Z"/>
    <path class="cls-8" d="m32.14,19.3c.09.12.21.3.37.53.07.1.14.21.19.28.25.4.34.65.73,1.49.05.11.09.2.12.25,0,.13.02.27.02.42,0,.14,0,.27,0,.4-.24.47-.51.88-1.05.99-.13.03-.26.03-.42.02-.01-.26,0-.49.02-.75-.03-.33-.05-.63-.1-.93-.15-.88-.56-1.65-1.08-2.37.36-.12.71-.21,1.08-.31.02,0,.04,0,.06,0,.03,0,.05,0,.07,0Z"/>
    <path class="cls-11" d="m29.11,27.6c.04.38.08.75.09,1.16-.54.08-.75.4-.87.88-.14.53-.32,1.07-.6,1.53-.68,1.12-1.7,1.8-3.01,2.01-.38.06-.57.24-.61.59.24.03.48.05.72.08-.44.02-.89.11-1.33.06-.85-.08-1.64-.37-2.35-.86-1.15-.78-1.86-1.88-2.12-3.22-.08-.4-.24-.53-.55-.66-1.77-.72-2.8-2.04-3.11-3.92-.04-.26-.04-.53-.03-.83.4-.04.6-.18.73-.53.05-.15.09-.3.12-.45.28-1.58,1.7-3.01,3.3-3.33.31-.06.65-.09.84-.4.04-.07.07-.18.05-.26-.01-.04-.13-.07-.21-.08-.13-.01-.27,0-.38-.03.49,0,.95,0,1.44.01.05,0,.09,0,.15,0,.52.17,1.02.33,1.54.5.09-.11.19-.24.31-.38.07-.05.13-.08.21-.11.2.13.37.24.54.38-.15.2-.29.39-.44.57.18.15.35.29.52.44.15.17.29.33.43.5.28.55.54,1.08.79,1.63-.44.05-.86.09-1.28.1-.09,0-.2-.1-.27-.19-.2-.26-.38-.54-.58-.82-.05-.03-.08-.04-.11-.05,0,0,0,0,0-.01-.02-.03-.04-.04-.06-.05,0,0,0,0,0-.02-.06-.09-.11-.18-.18-.24-.85-.65-1.78-.97-2.88-.82-2.41.33-3.87,2.94-2.75,5.22.17.35.49.63.73.94,0,0,0,0,0,.01.02.03.04.04.06.08.31.36.67.62,1.12.75-.04.33-.07.64-.11.94.4.07.68-.15.8-.57.12-.44.21-.9.41-1.3.68-1.38,1.81-2.19,3.33-2.47.37-.07.52-.25.56-.64.12-.02.23-.06.33-.05.39.05.77.12,1.18.19.26.09.49.17.74.27.4.27.79.53,1.19.81.36.43.7.83,1.06,1.27.11.23.21.45.32.68.09.24.17.46.26.67m-2.58-1.39s0,0,0-.05c-.18-.15-.34-.33-.54-.46-1.37-.9-3.29-.7-4.46.45-.91.89-1.23,1.98-1.07,3.21.1.75.41,1.42.99,1.93,0,0,0,0,.01.03.04.03.08.06.13.13,1.02,1.08,2.89,1.27,4.2.57,1.43-.77,2.15-2.29,1.86-3.86-.12-.66-.35-1.29-.88-1.79-.02-.01-.03-.03-.06-.07-.01-.01-.02-.02-.07-.06-.04-.01-.07-.02-.11-.03Z"/>
    <path class="cls-7" d="m28.85,26.9c-.1-.21-.21-.43-.29-.67.08-.06.14-.11.21-.14.28-.13.36-.3.13-.55-.39-.43-.78-.86-1.18-1.3,0-.01,0-.04,0-.07,0-.91.02-1.78,0-2.66-.01-.5-.29-.74-.72-.74-.4,0-.74.24-.73.75.02.52,0,1.04,0,1.56,0,.07-.02.14-.03.2-.25-.92-.63-1.76-1.22-2.52.95-.8,2.01-1.12,3.2-.85.46.1.88.34,1.32.52,0,0,0,0,0,.01.02.03.04.04.06.05,0,0,0,0,0,0,.02,0,.04,0,.08,0,.98,1.12,1.14,2.37.71,3.74-.2.61-.6,1.08-1.06,1.52-.07.07-.14.2-.12.28.06.18.17.35.26.54.96-.7,1.53-1.6,1.76-2.73.13-.62.28-.79.86-.9-.02.23-.03.47-.04.73-.23,1.59-1,2.81-2.37,3.63-.08-.23-.13-.44-.19-.65-.25.1-.44.17-.64.25m.89-4.23c-.05.14-.11.28-.14.43-.04.15-.01.32-.07.45-.17.36-.38.7-.55,1.06-.06.13-.11.33-.06.44.04.09.27.16.38.13.15-.04.31-.16.41-.29.35-.49.53-1.04.6-1.64.06-.56.02-.64-.57-.59Z"/>
    <path class="cls-3" d="m24.86,33.86c-.26-.03-.5-.06-.74-.09.05-.35.23-.53.61-.59,1.31-.22,2.32-.9,3.01-2.01.28-.46.46-1,.6-1.53.12-.48.33-.79.86-.85-.02,1.5-.54,2.79-1.65,3.83-.25.24-.56.41-.88.62-.05.02-.06.04-.07.05-.05.02-.09.05-.18.08-.05.02-.07.03-.07.05,0,0-.03,0-.06.01-.05.02-.06.03-.07.05,0,0-.03,0-.06.01-.05.02-.06.03-.07.05-.13.04-.26.09-.42.12-.07.01-.11.04-.14.07-.03,0-.05,0-.11,0-.07.01-.1.04-.14.06-.03,0-.05,0-.11,0-.09.01-.14.04-.2.07-.03,0-.06,0-.1,0Z"/>
    <path class="cls-14" d="m19.75,19.37c.14,0,.27,0,.41.01.07,0,.19.04.21.08.02.08,0,.19-.05.26-.19.31-.53.34-.84.4-1.6.32-3.02,1.75-3.3,3.33-.03.15-.07.3-.12.45-.12.35-.33.49-.72.5-.03-.21-.04-.42-.04-.65.15-.5.3-.97.47-1.47.39-.55.75-1.06,1.13-1.58.72-.65,1.51-1.09,2.48-1.26.14-.02.26-.04.37-.07,0,0,0,0,0,0Z"/>
    <path class="cls-2" d="m28.85,26.93c.2-.1.39-.18.64-.28.06.21.11.43.17.66,0,.03,0,.03-.02.03-.05.02-.08.04-.11.06-.13.06-.26.13-.41.19-.11-.21-.19-.43-.28-.67Z"/>
    <path class="cls-7" d="m29.56,27.4s.04-.04.09-.06c0,.02-.04.04-.09.06Z"/>
    <path class="cls-10" d="m16.88,20.7c-.36.51-.73,1.03-1.11,1.55-3.19.01-6.37,0-9.55.02-.34,0-.43-.13-.45-.42-.11-1.23-1.18-2.33-2.4-2.48-.14-.02-.29-.05-.45-.09v-10.11c.47-.15.96-.24,1.38-.46.87-.46,1.39-1.2,1.48-2.2.02-.24.12-.32.36-.31,1.76,0,3.51,0,5.27,0,5.79,0,11.58,0,17.37,0,.44,0,.41,0,.47.45.09.7.44,1.27.97,1.73.53.47,1.16.67,1.91.72,0,3.39,0,6.77,0,10.18-.03.03-.06.03-.11.01-.62-.57-1.3-.97-2.06-1.21-.68-.21-1.38-.3-2.11-.16-.67-.09-1.31-.11-1.97.07-.53.21-1.06.37-1.54.63-.34.19-.62.5-.92.75-.06.04-.12.07-.21.12-.17-.02-.3-.08-.43-.08-.47-.02-.94-.03-1.42-.04-.04,0-.07,0-.12-.03.27-.36.57-.66.82-1.01,1.05-1.5,1.47-3.17,1.24-5-.26-2.12-1.23-3.8-3.06-4.94-1.01-.62-2.13-.87-3.3-.73-1.62.2-2.93,1.01-3.89,2.31-1.18,1.6-1.59,3.43-1.28,5.38.27,1.69,1.03,3.14,2.4,4.21.8.63,1.69,1.07,2.73,1.12m-9.2-5.53c.42.45.93.62,1.53.41.63-.22.97-.71.99-1.35.02-.84-.7-1.66-1.75-1.45-.55.11-.9.45-1.09.97-.19.52-.07.98.32,1.42m18.88.44c.69-.12,1.25-.86,1.16-1.55-.11-.77-.68-1.32-1.46-1.32-1.01,0-1.65.93-1.38,1.87.21.71.95,1.17,1.69,1Z"/>
    <path class="cls-11" d="m25.88,17.98c.64-.18,1.28-.16,1.97-.06.29.07.54.12.77.19.91.28,1.64.84,2.29,1.52.53.71.95,1.47,1.09,2.35.05.3.07.6.1.93-.58.14-.74.31-.86.93-.23,1.13-.8,2.03-1.76,2.73-.1-.19-.21-.36-.26-.54-.02-.07.05-.21.12-.28.46-.43.87-.9,1.06-1.52.43-1.36.27-2.62-.73-3.74-.05-.01-.06-.01-.07,0,0,0,0,0,0-.01-.02-.03-.04-.04-.06-.05,0,0,0,0,0-.02-.02-.06-.04-.1-.06-.13-1.13-1.1-3.03-1.3-4.38-.46-.21.13-.42.24-.64.34-.13-.15-.25-.29-.37-.44.19-.18.36-.37.56-.5.56-.36,1.18-.56,1.83-.67.3-.05.48-.29.44-.63-.35.02-.7.04-1.05.06Z"/>
    <path class="cls-8" d="m30.93,19.62c-.66-.67-1.39-1.22-2.3-1.5-.24-.07-.48-.13-.75-.19.69-.14,1.39-.06,2.06.16.44.14.77.31,1.02.45.59.31,1.04.65,1.34.91-.25,0-.52.03-.82.08-.2.03-.38.07-.55.11Z"/>
    <path class="cls-8" d="m16.9,20.69c-1.06-.05-1.94-.49-2.74-1.12-1.38-1.08-2.13-2.53-2.4-4.21-.31-1.95.1-3.78,1.28-5.38.96-1.3,2.27-2.12,3.89-2.31,1.17-.14,2.29.11,3.3.73,1.83,1.14,2.8,2.83,3.06,4.94.23,1.83-.19,3.49-1.24,5-.24.35-.55.65-.83,1-.47.02-.94,0-1.43.02-.02.02-.02.02-.04.02-.14.02-.26.04-.38.06-.94.16-1.74.61-2.45,1.26m1.31-7.21c-.43,0-.86,0-1.29,0-.12,0-.25-.02-.37-.05-.36-.1-.54-.4-.5-.79.03-.33.3-.59.66-.6.65-.01,1.3,0,1.94,0,.14,0,.29-.02.43-.05.37-.07.59-.33.6-.68,0-.36-.22-.65-.6-.71-.2-.03-.41-.04-.62-.04-.16,0-.24-.04-.28-.21-.09-.34-.34-.5-.7-.49-.34,0-.55.18-.68.5-.04.11-.18.23-.29.25-1.38.17-2.25,1.49-1.83,2.82.29.92,1.07,1.51,2.03,1.53.56.01,1.13,0,1.69.06.39.04.58.36.54.78-.03.36-.28.6-.67.61-.65.01-1.3,0-1.94,0-.16,0-.31.02-.46.05-.34.07-.55.34-.56.7,0,.33.22.62.56.69.19.04.39.05.59.05.2,0,.32.01.37.26.05.29.34.44.68.44.34,0,.61-.16.67-.45.05-.25.19-.29.39-.3.5-.04.93-.27,1.26-.63.63-.71.77-1.55.4-2.42-.36-.84-1.05-1.24-2.01-1.28Z"/>
    <path class="cls-7" d="m26.67,26.27s.03.02.05.06c.03.04.05.05.07.07.52.47.74,1.1.87,1.76.29,1.58-.42,3.09-1.86,3.86-1.31.71-3.19.52-4.21-.61-.05-.07-.09-.1-.13-.13,0,0,0,0,0-.02-.02-.08-.04-.14-.06-.2-.15-.44-.38-.88-.42-1.33-.13-1.32.27-2.47,1.36-3.31.94-.72,2-.94,3.14-.65.37.09.71.28,1.07.42,0,0,0,0,0,.02.05.03.09.04.13.05m-2.16.47c-.64-.28-1.15-.03-1.17.62-.03.97-.02,1.94,0,2.92.01.46.34.72.79.7.39-.01.65-.31.65-.76,0-.93,0-1.86,0-2.79,0-.25-.05-.47-.27-.68m2.18,2.17c-.04.58-.22,1.1-.61,1.53-.15.17-.18.36,0,.53.14.13.5.09.62-.09.43-.59.72-1.24.72-1.99,0-.23-.02-.42-.32-.43-.3-.02-.39.14-.41.45Z"/>
    <path class="cls-7" d="m23.14,22.01c.19.27.37.54.57.8.07.09.18.19.27.19.42,0,.84-.05,1.3-.08.11.32.18.65.25.97-.38-.06-.77-.13-1.15-.18-.1-.01-.2.02-.34.04-.06,0-.07-.02-.08-.07-.02-.1-.05-.18-.06-.27-.05-.28-.18-.4-.47-.27-.41.18-.84.32-1.22.54-.37.2-.69.47-1.06.73,0-.49.02-.97-.01-1.44-.01-.2-.11-.43-.25-.57-.21-.23-.53-.19-.79-.08-.28.12-.4.38-.4.69,0,.92,0,1.84,0,2.76,0,.09.04.17.05.28-.23.59-.46,1.16-.69,1.73-.45-.1-.82-.36-1.13-.74-.03-.05-.04-.06-.06-.08,0,0,0,0,0-.02-.58-.94-.72-1.93-.45-2.98.5-1.94,2.44-3.04,4.42-2.53.39.1.74.3,1.12.46,0,0,0,0,0,.01.02.03.04.04.06.05,0,0,0,0,0,.01.05.03.08.04.12.05Z"/>
    <path class="cls-15" d="m25.55,23.89c-.09-.33-.17-.65-.25-.99-.28-.55-.55-1.08-.81-1.63.5-.46.53-.64-.03-.97,0-.05,0-.08,0-.11.21-.12.43-.23.63-.35,1.35-.84,3.25-.64,4.38.46.03.03.04.07.07.13-.44-.16-.86-.4-1.32-.5-1.19-.27-2.25.05-3.2.85.59.77.97,1.6,1.22,2.52.01-.07.03-.14.03-.2,0-.52.02-1.04,0-1.56-.02-.51.33-.76.73-.75.42,0,.7.25.72.74.02.88,0,1.75-.02,2.66-.46-.23-.9-.48-1.42-.79v.76c-.23-.08-.47-.17-.72-.26Z"/>
    <path class="cls-5" d="m22.95,21.86c-.37-.13-.73-.33-1.11-.43-1.98-.51-3.92.59-4.42,2.53-.27,1.05-.13,2.04.45,2.98-.25-.29-.56-.57-.73-.91-1.12-2.29.34-4.9,2.75-5.22,1.1-.15,2.03.17,2.88.82.07.05.12.14.18.24Z"/>
    <path class="cls-9" d="m26.53,26.19c-.35-.12-.7-.31-1.06-.4-1.15-.29-2.21-.07-3.14.65-1.09.84-1.49,1.98-1.36,3.31.04.45.28.89.42,1.33.02.06.04.12.06.2-.58-.49-.89-1.16-.99-1.9-.16-1.23.16-2.32,1.07-3.21,1.17-1.15,3.09-1.35,4.46-.45.2.13.36.3.54.48Z"/>
    <path class="cls-12" d="m19.06,27.8c.23-.6.45-1.17.7-1.77,1.02-1.51,2.42-2.25,4.19-2.33,0,.02.02.04.05.05,0,.39-.15.57-.52.64-1.51.28-2.65,1.09-3.33,2.47-.2.4-.28.87-.41,1.3-.12.42-.4.64-.8.57.04-.3.07-.61.11-.94Z"/>
    <path class="cls-14" d="m25.85,17.99c.37-.02.72-.04,1.07-.06.04.34-.14.58-.44.63-.65.11-1.28.31-1.83.67-.2.13-.37.32-.58.5-.05.02-.08.01-.1.01-.18-.12-.35-.23-.55-.36.28-.27.56-.58.9-.76.48-.26,1.01-.42,1.54-.63Z"/>
    <path class="cls-9" d="m27.72,24.27c.39.43.78.86,1.17,1.29.22.25.15.42-.13.55-.07.03-.12.07-.21.11-.37-.4-.72-.81-1.06-1.25.08-.25.15-.48.22-.7Z"/>
    <path class="cls-4" d="m27.72,24.25c-.07.24-.14.46-.23.7-.41-.25-.8-.51-1.2-.78-.01-.24-.01-.46-.01-.78.52.3.96.56,1.42.82.02,0,.02.03.03.05Z"/>
    <path class="cls-16" d="m23.95,19.76s.06-.01.11-.01c.14.13.26.27.39.42,0,.05,0,.08,0,.14-.15.17-.28.31-.42.45-.16-.14-.33-.27-.51-.42.15-.19.29-.37.44-.57Z"/>
    <path class="cls-10" d="m21.35,19.37c.45,0,.92.01,1.39.03.13,0,.26.06.42.1-.08.13-.18.26-.27.37-.52-.17-1.02-.33-1.54-.5Z"/>
    <path class="cls-6" d="m24.03,20.75c.06-.06.13-.13.2-.21.09-.1.17-.21.23-.3.26,0,.48.2.52.43.04.27-.17.56-.49.59-.08-.08-.16-.16-.24-.25-.08-.09-.16-.18-.23-.27Z"/>
    <path class="cls-9" d="m26.65,26.26s-.06,0-.11-.03c.03,0,.06,0,.11.03Z"/>
    <path class="cls-5" d="m23.13,21.99s-.06,0-.1-.03c.02,0,.06,0,.1.03Z"/>
    <path class="cls-9" d="m26.78,26.39s-.03-.01-.05-.04c.01,0,.03.01.05.04Z"/>
    <path class="cls-5" d="m17.88,26.98s.03.01.05.04c-.01,0-.03-.01-.05-.04Z"/>
    <path class="cls-5" d="m23.01,21.93s-.03,0-.05-.04c.01,0,.03,0,.05.04Z"/>
    <path class="cls-11" d="m29.77,22.66c.57-.04.6.04.54.6-.07.61-.25,1.15-.6,1.64-.09.13-.25.25-.41.29-.12.03-.34-.04-.38-.13-.05-.12,0-.31.06-.44.17-.36.38-.7.55-1.06.06-.13.04-.31.07-.45.03-.15.09-.28.17-.44Z"/>
    <path class="cls-9" d="m29.55,20.45s.03,0,.05.04c-.01,0-.03,0-.05-.04Z"/>
    <path class="cls-9" d="m29.61,20.51s.02-.01.04-.01c0,0-.02.01-.04.01Z"/>
    <path class="cls-11" d="m19.38,19.43c.09-.02.21-.05.35-.07-.09.02-.21.05-.35.07Z"/>
    <path class="cls-8" d="m7.66,15.16c-.38-.42-.49-.89-.3-1.4.19-.52.54-.85,1.09-.97,1.05-.21,1.77.6,1.75,1.45-.02.64-.36,1.13-.99,1.35-.59.21-1.1.04-1.54-.42Z"/>
    <path class="cls-8" d="m26.53,15.62c-.71.17-1.45-.29-1.66-1.01-.27-.94.37-1.87,1.38-1.87.78,0,1.36.55,1.46,1.32.1.69-.47,1.44-1.18,1.56Z"/>
    <path class="cls-1" d="m18.24,13.48c.93.04,1.63.45,1.98,1.28.37.87.23,1.71-.4,2.42-.32.36-.75.59-1.26.63-.2.02-.35.05-.39.3-.05.29-.33.45-.67.45-.34,0-.62-.15-.68-.44-.05-.25-.17-.26-.37-.26-.2,0-.4,0-.59-.05-.34-.07-.57-.36-.56-.69,0-.36.21-.63.56-.7.15-.03.31-.05.46-.05.65,0,1.3,0,1.94,0,.39,0,.64-.24.67-.61.04-.42-.15-.74-.54-.78-.56-.06-1.12-.05-1.69-.06-.97-.02-1.74-.61-2.03-1.53-.41-1.32.46-2.65,1.83-2.82.11-.01.24-.14.29-.25.13-.32.34-.49.68-.5.37,0,.61.15.7.49.05.17.13.21.28.21.21,0,.42.01.62.04.38.06.61.35.6.71,0,.36-.23.62-.6.68-.14.03-.29.04-.43.05-.65,0-1.3,0-1.94,0-.36,0-.62.26-.66.6-.04.4.14.69.5.79.12.03.25.05.37.05.43,0,.86,0,1.32,0Z"/>
    <path class="cls-15" d="m24.53,26.76c.21.19.26.41.25.67-.01.93,0,1.86,0,2.79,0,.45-.25.75-.65.76-.45.02-.78-.25-.79-.7-.02-.97-.03-1.94,0-2.92.02-.65.53-.9,1.19-.6Z"/>
    <path class="cls-11" d="m26.69,28.89c.01-.28.1-.44.4-.42.3.02.32.2.32.43,0,.75-.28,1.4-.72,1.99-.13.18-.48.22-.62.09-.18-.17-.14-.36,0-.53.39-.44.57-.96.62-1.56Z"/>
    <path class="cls-15" d="m23.96,23.68c-1.77.1-3.17.84-4.19,2.33-.04-.07-.08-.16-.08-.25,0-.92,0-1.84,0-2.76,0-.31.11-.56.4-.69.26-.11.57-.15.79.08.14.14.23.37.25.57.03.47.01.95.01,1.44.37-.26.7-.53,1.06-.73.39-.21.82-.36,1.22-.54.29-.13.42,0,.47.27.01.08.04.16.06.27Z"/>
  </g>
</svg>